<svg width="24" height="24" viewBox="0 0 24 24" fill="none" xmlns="http://www.w3.org/2000/svg">
<g opacity="0.7">
<path fill-rule="evenodd" clip-rule="evenodd" d="M23.2071 2.20713C23.5976 1.81661 23.5976 1.18344 23.2071 0.79292C22.8165 0.402396 22.1834 0.402396 21.7929 0.79292L12 10.5858L2.20711 0.79292C1.81658 0.402396 1.18342 0.402396 0.792894 0.79292C0.402369 1.18344 0.402369 1.81661 0.792894 2.20713L10.5858 12L0.792893 21.7929C0.402369 22.1834 0.402369 22.8166 0.792893 23.2071C1.18342 23.5976 1.81658 23.5976 2.20711 23.2071L12 13.4142L21.7929 23.2071C22.1834 23.5976 22.8165 23.5976 23.2071 23.2071C23.5976 22.8166 23.5976 22.1834 23.2071 21.7929L13.4142 12L23.2071 2.20713Z" fill="white"/>
</g>
</svg>
