<svg width="40" height="40" viewBox="0 0 40 40" fill="none" xmlns="http://www.w3.org/2000/svg">
<path d="M0 20C0 8.95431 8.95431 0 20 0C31.0457 0 40 8.95431 40 20C40 31.0457 31.0457 40 20 40C8.95431 40 0 31.0457 0 20Z" fill="white"/>
<path fill-rule="evenodd" clip-rule="evenodd" d="M12.2929 13.7071C11.9024 13.3166 11.9024 12.6834 12.2929 12.2929C12.6834 11.9024 13.3166 11.9024 13.7071 12.2929L20 18.5858L26.2929 12.2929C26.6834 11.9024 27.3166 11.9024 27.7071 12.2929C28.0976 12.6834 28.0976 13.3166 27.7071 13.7071L21.4142 20L27.7071 26.2929C28.0976 26.6834 28.0976 27.3166 27.7071 27.7071C27.3166 28.0976 26.6834 28.0976 26.2929 27.7071L20 21.4142L13.7071 27.7071C13.3166 28.0976 12.6834 28.0976 12.2929 27.7071C11.9024 27.3166 11.9024 26.6834 12.2929 26.2929L18.5858 20L12.2929 13.7071Z" fill="#B9B9B9"/>
</svg>
