<svg width="16" height="13" viewBox="0 0 16 13" fill="none" xmlns="http://www.w3.org/2000/svg">
<path d="M15.6969 3.96641C15.8187 3.86953 16 3.96016 16 4.11328V10.5039C16 11.332 15.3281 12.0039 14.5 12.0039H1.5C0.671875 12.0039 0 11.332 0 10.5039V4.11641C0 3.96016 0.178125 3.87266 0.303125 3.96953C1.00312 4.51328 1.93125 5.20391 5.11875 7.51953C5.77813 8.00078 6.89062 9.01328 8 9.00703C9.11563 9.01641 10.25 7.98203 10.8844 7.51953C14.0719 5.20391 14.9969 4.51016 15.6969 3.96641ZM8 8.00391C8.725 8.01641 9.76875 7.09141 10.2937 6.71016C14.4406 3.70078 14.7562 3.43828 15.7125 2.68828C15.8937 2.54766 16 2.32891 16 2.09766V1.50391C16 0.675781 15.3281 0.00390625 14.5 0.00390625H1.5C0.671875 0.00390625 0 0.675781 0 1.50391V2.09766C0 2.32891 0.10625 2.54453 0.2875 2.68828C1.24375 3.43516 1.55938 3.70078 5.70625 6.71016C6.23125 7.09141 7.275 8.01641 8 8.00391Z" fill="white"/>
</svg>
