<svg width="58" height="103" viewBox="0 0 58 103" fill="none" xmlns="http://www.w3.org/2000/svg">
<g id="Frame 270">
<path id="Union" fill-rule="evenodd" clip-rule="evenodd" d="M14.3297 3.19114L14.2992 3.25897C13.1727 5.76229 15.621 10.411 18.7101 9.88276C19.9267 9.67582 21.074 9.30282 22.1521 8.76378C23.564 8.05784 24.1823 6.54583 24.1373 5.04133C24.1326 4.88991 24.1296 4.74221 24.1268 4.59796C24.1006 3.28275 24.0801 2.25485 22.783 1.31639C21.7191 0.545368 20.2346 0.280015 18.9279 0.149842C18.1769 0.0747422 17.4801 0.130649 16.8376 0.317564C15.4358 0.728268 14.8965 1.92902 14.3297 3.19114ZM12.8133 46.1534C13.9381 46.1434 15.1447 46.1409 16.4331 46.1459C16.5249 46.1459 16.5724 46.1918 16.5758 46.2835C16.5925 46.8693 16.5941 47.4801 16.5808 48.116C16.4072 56.654 16.2653 64.7672 16.1552 72.4558C16.1377 73.5297 15.8924 74.471 15.0738 75.1894C14.4096 75.775 13.7211 76.3615 13.0274 76.9524C11.1115 78.5844 9.15605 80.2499 7.5663 82.0235C3.37073 86.7047 1.28546 92.963 0.106399 99.394C-0.0237739 100.11 -0.141431 100.944 0.441843 101.492C1.0066 102.025 1.90842 102.183 2.70904 102.324L2.70947 102.324L2.71011 102.324L2.71108 102.324L2.71251 102.324L2.71471 102.325L2.71803 102.325L2.72006 102.326C2.80996 102.342 2.89855 102.357 2.98522 102.373C4.56482 102.666 5.74138 102.273 6.42228 100.661C7.49203 98.124 8.5693 95.5815 9.65407 93.0331C10.9233 90.0541 12.7131 87.2304 15.2315 85.1001C15.4301 84.9315 15.6454 84.8047 15.8773 84.7196C15.9758 84.6828 16.0417 84.7137 16.0751 84.8122L16.0914 84.861L16.1147 84.93C16.1997 85.1805 16.2804 85.4182 16.2804 85.6933C16.2587 89.7971 16.2812 93.5496 16.348 96.9508C16.363 97.7602 16.4122 98.5604 16.4957 99.3515C16.721 101.534 18.7236 102.443 20.6912 102.138C21.6291 101.992 22.1807 101.373 22.3459 100.28C22.5946 98.653 22.7181 97.0693 22.7164 95.5289C22.7164 88.2129 22.5854 80.1961 22.4283 70.5867L22.4283 70.583L22.4281 70.5741L22.428 70.5684C22.3804 67.6526 22.3303 64.5901 22.2808 61.356C22.1206 50.797 22.381 39.7624 23.0619 28.2521C23.1537 26.7217 23.127 23.7553 22.9818 19.3528C22.9092 17.1749 22.3835 15.6128 19.9477 15.5678C16.645 15.5044 13.4191 16.1252 10.2699 17.4303C4.99289 19.6131 2.45952 23.681 1.89878 29.1108C1.50325 32.9308 2.20252 36.5306 3.99656 39.9101C6.04679 43.7752 8.18712 46.1984 12.8133 46.1534ZM7.77909 34.2551C6.90543 32.0897 7.42111 30.0996 8.83048 28.3798C10.8231 25.944 13.4316 24.3169 16.3054 23.0928C16.3138 23.089 16.323 23.0874 16.3321 23.0881C16.3412 23.0888 16.3501 23.0918 16.3578 23.0967C16.3655 23.1017 16.3718 23.1085 16.3762 23.1166C16.3807 23.1246 16.383 23.1337 16.383 23.1428L16.3855 39.9652C16.3855 40.0686 16.3346 40.1162 16.2328 40.1078C12.4628 39.7824 9.22851 37.8448 7.77909 34.2551ZM33.8211 28.3923L33.9138 41.1868C33.9154 41.4822 33.7711 41.6574 33.4807 41.7125C33.4289 41.7225 33.3772 41.7183 33.3255 41.7C33.0852 41.6165 32.9642 41.4471 32.9625 41.1918L32.8974 28.3648C32.8974 28.288 32.8599 28.2496 32.7848 28.2496L31.7734 28.2471C31.5114 28.2471 31.3754 28.1161 31.3654 27.8541L31.3629 27.784C31.3512 27.4686 31.5039 27.3109 31.821 27.3109H34.8124C35.1128 27.3109 35.258 27.4619 35.248 27.764L35.2455 27.8441C35.2372 28.1128 35.0987 28.2471 34.83 28.2471H33.9638C33.867 28.2488 33.8195 28.2972 33.8211 28.3923ZM38.7529 41.6924C42.2125 42.7088 43.016 37.9825 39.5565 38.0826C39.433 38.086 39.3704 38.0259 39.3687 37.9024L39.3036 31.1184C39.3019 30.9982 39.3612 30.9415 39.4814 30.9482C40.0137 30.9732 40.4952 30.8622 40.9258 30.6152C41.852 30.0845 42.0523 28.7703 41.3939 27.9517C40.8156 27.2307 39.6391 27.2483 38.7929 27.3359C38.6743 27.3483 38.5645 27.4046 38.4849 27.4939C38.4053 27.5832 38.3617 27.6991 38.3624 27.819L38.445 41.2844C38.4456 41.3762 38.4758 41.4654 38.5313 41.5388C38.5867 41.6123 38.6644 41.6662 38.7529 41.6924ZM39.3086 29.9719L39.3036 28.2846C39.3036 28.2687 39.3099 28.2534 39.3212 28.2422C39.3325 28.2309 39.3478 28.2246 39.3637 28.2246L39.7392 28.2221C39.8846 28.2216 40.0287 28.2431 40.1631 28.2854C40.2976 28.3277 40.4198 28.3899 40.5228 28.4685C40.6258 28.5471 40.7075 28.6405 40.7634 28.7434C40.8192 28.8463 40.848 28.9566 40.8482 29.0682V29.1783C40.8485 29.4032 40.7324 29.6192 40.5254 29.7788C40.3184 29.9384 40.0374 30.0285 39.7442 30.0295L39.3687 30.032C39.3528 30.032 39.3375 30.0256 39.3262 30.0144C39.315 30.0031 39.3086 29.9878 39.3086 29.9719ZM39.3787 40.7812L39.3637 39.094C39.3634 39.0806 39.3657 39.0673 39.3706 39.0549C39.3755 39.0425 39.3828 39.0311 39.3921 39.0216C39.4015 39.012 39.4126 39.0044 39.4249 38.9992C39.4372 38.994 39.4505 38.9913 39.4638 38.9913L39.7617 38.9888C40.0504 38.9864 40.328 39.0786 40.5336 39.2453C40.7392 39.4119 40.8559 39.6393 40.8582 39.8775V39.9676C40.8593 40.0857 40.8322 40.2029 40.7785 40.3125C40.7247 40.4221 40.6453 40.5219 40.5449 40.6063C40.4445 40.6907 40.3249 40.758 40.1931 40.8043C40.0613 40.8507 39.9198 40.8751 39.7767 40.8764L39.4789 40.8789C39.4527 40.8789 39.4276 40.8687 39.4089 40.8504C39.3902 40.8322 39.3794 40.8073 39.3787 40.7812ZM45.205 29.6891C45.2701 28.3798 46.1212 26.8203 47.6683 27.4736C48.6596 27.8942 48.8323 29.3786 48.8624 30.365C48.9358 32.7131 48.9325 35.5126 48.8523 38.7636C48.8273 39.7474 48.5595 41.3595 47.4179 41.6524C45.8308 42.058 45.3026 40.3207 45.2325 39.084C45.0556 36.025 45.0465 32.8933 45.205 29.6891ZM47.4254 40.5735C47.9064 40.0113 47.9173 39.0945 47.9262 38.3371C47.9274 38.2312 47.9287 38.1284 47.9311 38.0301C48.0029 35.3049 47.9937 32.6605 47.9036 30.0971C47.8886 29.624 47.7083 27.7765 46.7495 28.3222C46.3365 28.5576 46.1838 29.3236 46.1563 29.7516C45.9894 32.2333 45.9911 35.2765 46.1613 38.8813C46.188 39.4604 46.3006 39.9744 46.4992 40.4233C46.6744 40.8213 47.1351 40.914 47.4254 40.5735ZM54.7678 31.1985C54.8445 30.9849 55.0006 30.8939 55.2359 30.9257C55.2821 30.9327 55.3242 30.9557 55.3549 30.9905C55.3856 31.0254 55.4029 31.0698 55.4036 31.1159L55.4762 41.2068C55.4779 41.4888 55.6181 41.6524 55.8968 41.6975C55.9518 41.7075 56.0044 41.7058 56.0545 41.6924C56.2915 41.6324 56.4091 41.4805 56.4074 41.2368L56.3273 27.7514C56.3273 27.6551 56.2929 27.5619 56.2305 27.4889C56.168 27.4158 56.0816 27.3678 55.9869 27.3534C54.9906 27.1957 53.461 27.3059 53.0705 28.4449C52.7726 29.3085 53.053 30.0921 53.824 30.5877C53.9191 30.6495 53.9483 30.7329 53.9116 30.838C53.5695 31.8127 53.4051 32.8182 53.4185 33.8545C53.4435 35.9724 53.4251 37.7756 53.3634 39.2642C53.3434 39.7449 53.2232 40.1896 53.0029 40.5985C52.968 40.6646 52.9145 40.719 52.849 40.755C52.7835 40.791 52.7089 40.8071 52.6344 40.8012C52.5598 40.7954 52.4887 40.7678 52.4296 40.722C52.3706 40.6762 52.3262 40.6141 52.302 40.5434C52.2653 40.44 52.2419 40.3331 52.2319 40.223C52.2069 39.9051 51.8889 39.7574 51.6061 39.825C51.5206 39.8458 51.4443 39.8939 51.3891 39.9618C51.3339 40.0296 51.3028 40.1135 51.3007 40.2005C51.2756 40.9965 51.7638 41.7425 52.6249 41.7225C53.809 41.695 54.2446 40.4308 54.2796 39.5121C54.3447 37.8415 54.3756 35.8714 54.3722 33.6017C54.3722 32.8257 54.5024 31.932 54.7678 31.1985ZM55.3986 28.3097L55.3886 29.9569C55.3886 29.967 55.3866 29.9769 55.3826 29.9862C55.3787 29.9955 55.373 30.0039 55.3657 30.0109C55.3585 30.0179 55.3499 30.0234 55.3405 30.027C55.3311 30.0306 55.3211 30.0323 55.311 30.032L55.1608 30.0295C54.8228 30.0268 54.4995 29.936 54.2616 29.7769C54.0236 29.6179 53.8906 29.4035 53.8916 29.1808V29.0657C53.8921 28.955 53.9257 28.8456 53.9906 28.7438C54.0554 28.642 54.1502 28.5497 54.2695 28.4722C54.3888 28.3948 54.5303 28.3337 54.6858 28.2925C54.8413 28.2513 55.0078 28.2308 55.1758 28.2321L55.3235 28.2346C55.3434 28.2346 55.3625 28.2425 55.3766 28.2566C55.3907 28.2707 55.3986 28.2898 55.3986 28.3097ZM49.4643 52.3717L48.6432 52.3616C48.6345 52.3613 48.6259 52.3627 48.6179 52.3659C48.6098 52.369 48.6025 52.3738 48.5964 52.3799C48.5902 52.386 48.5855 52.3934 48.5823 52.4014C48.5792 52.4095 48.5777 52.4181 48.5781 52.4267C48.6999 55.2455 48.6891 58.0784 48.5455 60.9255C48.4821 62.1922 48.2777 63.3955 47.9322 64.5353C47.6143 65.5892 46.5854 66.3427 45.5916 65.5942C45.2245 65.3205 45.0317 64.9358 45.0134 64.4402C45.0017 64.1498 45.1327 63.9804 45.4064 63.932C45.5085 63.9132 45.614 63.9324 45.7026 63.9859C45.7912 64.0395 45.8569 64.1236 45.887 64.2224C45.8998 64.2654 45.9113 64.3111 45.923 64.3579C45.9754 64.567 46.0329 64.7962 46.2375 64.8883C46.9509 65.2112 47.2638 63.6091 47.3389 63.1535C47.5425 61.9068 47.6577 60.676 47.6844 59.4611C47.7395 56.9945 47.7228 54.4786 47.6343 51.9135C47.632 51.8524 47.642 51.7914 47.6639 51.7342C47.6857 51.677 47.719 51.6248 47.7616 51.5809C47.8041 51.5369 47.8552 51.502 47.9116 51.4783C47.9681 51.4546 48.0287 51.4425 48.0899 51.4429L50.0475 51.4454C50.1494 51.4454 50.247 51.4857 50.3193 51.5575C50.3915 51.6292 50.4324 51.7266 50.4331 51.8284L50.5232 65.3489C50.5248 65.6076 50.3988 65.7603 50.1452 65.807C50.0467 65.827 49.9491 65.822 49.8523 65.792C49.7753 65.7681 49.7079 65.7206 49.6597 65.6563C49.6116 65.5919 49.5852 65.5141 49.5844 65.434L49.5043 52.4117C49.5043 52.385 49.491 52.3717 49.4643 52.3717ZM34.4412 62.9281C34.4545 63.5272 34.3527 64.0504 34.1358 64.4977C33.8204 65.1535 32.9842 65.0459 32.7239 64.4026C32.5553 63.9853 32.4585 63.5664 32.4335 63.1459C32.2933 60.696 32.2675 58.0608 32.3559 55.2404C32.3809 54.4777 32.4527 53.791 32.5712 53.1802C32.6463 52.7846 33.167 52.1938 33.6151 52.4667C34.1145 52.7728 34.0849 53.7433 34.0672 54.3258C34.0657 54.3769 34.0642 54.425 34.0632 54.4694C34.0619 54.5182 34.0703 54.5669 34.088 54.6125C34.1056 54.6581 34.1322 54.6998 34.1662 54.7352C34.2002 54.7705 34.2409 54.7989 34.2859 54.8186C34.331 54.8382 34.3795 54.8489 34.4287 54.8499H34.5263C34.8083 54.8549 34.9619 54.7172 34.9869 54.4368C35.0695 53.4555 34.9894 52.0462 33.933 51.5981C32.8841 51.155 31.9329 51.9385 31.65 52.9599C31.5682 53.2519 31.519 53.5415 31.5023 53.8285C31.3204 56.7891 31.3246 59.9224 31.5148 63.2285C31.5649 64.1372 31.8903 65.4965 32.9192 65.7844C34.7942 66.3151 35.435 64.3375 35.3549 62.848C35.35 62.7498 35.3084 62.657 35.2384 62.588C35.1684 62.5189 35.0751 62.4786 34.9769 62.475L34.9043 62.4725C34.5889 62.4608 34.4345 62.6127 34.4412 62.9281ZM41.3024 58.2245C41.3057 57.8623 41.2548 57.8548 41.1497 58.2019C40.7458 59.5487 40.3027 60.9272 39.8204 62.3374C39.5782 63.0459 39.5904 63.7981 39.6025 64.544V64.5442C39.607 64.8234 39.6115 65.1017 39.6026 65.3764C39.5926 65.6768 39.4349 65.8354 39.1295 65.8521C39.07 65.8555 39.0105 65.8468 38.9545 65.8264C38.8986 65.806 38.8474 65.7744 38.8042 65.7336C38.7611 65.6927 38.7268 65.6435 38.7035 65.589C38.6802 65.5345 38.6684 65.4758 38.6689 65.4165L38.7615 51.8385C38.7632 51.5831 38.8909 51.4672 39.1445 51.4905L39.2872 51.503C39.5592 51.5297 39.6944 51.6791 39.6928 51.9511L39.6577 59.5387C39.656 59.754 39.6861 59.7582 39.7478 59.5512C40.1801 58.1243 40.6265 56.6766 41.0871 55.208C41.269 54.6272 41.3491 54.0748 41.3274 53.5508C41.3057 52.9933 41.3066 52.451 41.3299 51.9236C41.3399 51.6983 41.4551 51.5606 41.6754 51.5105C41.7221 51.5005 41.7689 51.4972 41.8156 51.5005C42.116 51.5239 42.2653 51.6858 42.2637 51.9862L42.1911 65.3489C42.1894 65.6543 42.0367 65.827 41.733 65.8671C41.6495 65.8771 41.5661 65.8512 41.4826 65.7895C41.3174 65.6643 41.2356 65.4983 41.2373 65.2913L41.3024 58.2245ZM54.9503 65.5141L55.1405 63.4239C55.143 63.3944 55.1568 63.367 55.1791 63.347C55.2013 63.3271 55.2305 63.3161 55.2607 63.3162L56.3897 63.3363C56.4865 63.3379 56.539 63.3872 56.5474 63.4839L56.7201 65.434C56.7468 65.7361 56.9112 65.8796 57.2133 65.8646L57.2783 65.8621C57.5654 65.8488 57.6947 65.6986 57.6664 65.4115L56.3596 51.9211C56.3485 51.8055 56.2966 51.6976 56.2131 51.6168C56.1295 51.5361 56.02 51.4877 55.904 51.4805C55.5519 51.4588 55.3566 51.6349 55.3182 52.0087C54.8693 56.508 54.4371 60.9739 54.0215 65.4065C53.9982 65.6552 54.11 65.7995 54.357 65.8396L54.5022 65.8621C54.7759 65.9072 54.9252 65.7912 54.9503 65.5141ZM55.9169 56.4675C55.9225 56.4726 55.9259 56.4796 55.9266 56.4872L56.4422 62.37L56.4423 62.374L56.4419 62.3776C56.4416 62.3792 56.4412 62.3807 56.4407 62.3822C56.44 62.3844 56.439 62.3864 56.4378 62.3884L56.4361 62.3908L56.4344 62.3928C56.4315 62.3959 56.4281 62.3983 56.4243 62.4C56.4205 62.4017 56.4164 62.4025 56.4122 62.4025L55.2707 62.395C55.2665 62.395 55.2624 62.3942 55.2586 62.3925C55.2548 62.3908 55.2513 62.3884 55.2485 62.3853C55.2457 62.3823 55.2435 62.3787 55.2422 62.3747C55.2408 62.3708 55.2403 62.3666 55.2406 62.3625L55.8164 56.4847C55.817 56.4771 55.8205 56.4701 55.826 56.465C55.8316 56.4599 55.8389 56.4571 55.8464 56.4571L55.8965 56.4596C55.9041 56.4596 55.9114 56.4624 55.9169 56.4675ZM32.3027 90.1168C32.316 90.2303 32.3035 90.3421 32.2651 90.4522C32.2384 90.529 32.19 90.5866 32.1199 90.625C31.9463 90.7217 31.7636 90.7251 31.5717 90.635C31.4365 90.5715 31.3689 90.4656 31.3689 90.317L31.3739 89.3758C31.3738 89.3128 31.3923 89.2512 31.427 89.1987C31.4618 89.1461 31.5112 89.105 31.5692 89.0804C31.7828 88.9886 32.0106 88.9669 32.2526 89.0153C32.3059 89.0264 32.3613 89.0208 32.4111 88.9993C32.4609 88.9778 32.5026 88.9414 32.5305 88.8952C32.8192 88.4078 33.0153 87.8513 33.1187 87.2254C33.2623 86.3559 33.3499 85.5257 33.3816 84.7346C33.4834 82.2363 33.5109 79.3208 33.4642 75.988C33.4632 75.9253 33.4746 75.8629 33.4978 75.8046C33.521 75.7464 33.5556 75.6933 33.5994 75.6486C33.6432 75.6039 33.6954 75.5683 33.753 75.5441C33.8106 75.5198 33.8724 75.5074 33.9348 75.5074L35.6696 75.5024C35.8007 75.5017 35.9266 75.5532 36.02 75.6456C36.1133 75.7381 36.1665 75.8639 36.1678 75.9955L36.2479 88.77C36.2496 88.9819 36.353 89.0645 36.5583 89.0178C37.4751 88.8141 37.4237 89.554 37.3832 90.1362C37.3789 90.1979 37.3748 90.2577 37.3719 90.3145C37.3685 90.3729 37.3533 90.4299 37.3272 90.4821C37.301 90.5343 37.2646 90.5806 37.22 90.6181C37.1755 90.6556 37.1238 90.6836 37.0681 90.7003C37.0124 90.7169 36.9539 90.722 36.8963 90.7151C36.5591 90.6733 36.4089 90.4739 36.4456 90.1168C36.4573 90.01 36.4089 89.9557 36.3005 89.9541L32.4629 89.9365C32.3394 89.9349 32.286 89.9949 32.3027 90.1168ZM33.682 89.0053L35.2591 89.0003C35.2991 89.0003 35.3192 88.9811 35.3192 88.9427L35.224 76.4962C35.224 76.4595 35.2057 76.4411 35.169 76.4411L34.4455 76.4436C34.4121 76.4436 34.3954 76.4603 34.3954 76.4937C34.4672 79.4493 34.4238 82.394 34.2653 85.3279C34.1985 86.5829 33.9882 87.787 33.6344 88.9402C33.6211 88.9836 33.6369 89.0053 33.682 89.0053ZM49.1584 85.4656C49.2535 84.9499 49.3362 84.9516 49.4063 85.4706C49.5765 86.724 49.8235 88.0999 50.1472 89.5986C50.1906 89.8005 50.3166 89.9048 50.5252 89.9115C50.5953 89.9132 50.6612 89.899 50.723 89.869C50.9683 89.7488 51.066 89.5544 51.0159 89.2857L49.7767 82.5743C49.7503 82.4303 49.7503 82.2835 49.7767 82.1412L50.8957 76.1457C50.9475 75.8637 50.8407 75.6659 50.5753 75.5525C50.5169 75.5274 50.4551 75.5157 50.3901 75.5174C50.1648 75.5258 50.0312 75.6409 49.9895 75.8629L49.3412 79.38C49.2861 79.6754 49.231 79.6754 49.1759 79.38L48.5276 75.8804C48.4825 75.6434 48.3398 75.5241 48.0995 75.5224C48.0545 75.5208 48.0111 75.5266 47.9693 75.5399C47.6873 75.6284 47.5722 75.8178 47.6239 76.1082C47.9493 77.9607 48.2973 79.8089 48.6678 81.6531C48.7546 82.0836 48.7621 82.495 48.6903 82.8872C48.2948 85.015 47.9018 87.1504 47.5112 89.2932C47.4595 89.5702 47.5613 89.7688 47.8166 89.889C47.8867 89.924 47.9693 89.929 48.0645 89.904C48.2531 89.8573 48.3657 89.738 48.4024 89.546L49.1584 85.4656ZM42.5529 84.5243L43.2313 75.9855C43.2547 75.6984 43.4099 75.5549 43.6969 75.5549H43.8046C43.8521 75.5544 43.8992 75.5639 43.943 75.5827C43.9867 75.6015 44.0262 75.6293 44.0588 75.6643C44.0915 75.6993 44.1167 75.7408 44.1328 75.7862C44.1489 75.8315 44.1556 75.8798 44.1525 75.9279C43.8505 80.494 43.5033 84.5944 43.1112 88.2292C43.0728 88.5747 42.981 88.9118 42.8358 89.2406C42.5204 89.9515 41.6743 90.2069 41.0835 89.6686C40.8081 89.4166 40.6429 89.0745 40.5878 88.6423C40.5611 88.4237 40.6287 88.2401 40.7906 88.0915C40.8724 88.0164 40.9658 87.9856 41.071 87.9989C41.3797 88.0373 41.5282 88.2117 41.5165 88.5221C41.5099 88.7508 41.5758 88.9043 41.7143 88.9827C41.7442 88.9995 41.7778 89.0089 41.8121 89.0099C41.8464 89.0109 41.8806 89.0037 41.9117 88.9888C41.9428 88.9738 41.97 88.9516 41.9909 88.924C42.0119 88.8964 42.0261 88.8642 42.0322 88.83L42.3376 87.1253C42.351 87.0518 42.336 86.9834 42.2926 86.92C41.8286 86.2257 41.5216 85.4581 41.3714 84.6169C40.9158 82.0535 40.572 79.163 40.34 75.9454C40.3216 75.6951 40.4385 75.5658 40.6905 75.5574L40.763 75.5549C41.0651 75.5449 41.2295 75.6909 41.2562 75.993C41.4965 78.8568 41.7769 81.7256 42.3176 84.5368C42.4278 85.1059 42.5062 85.1017 42.5529 84.5243ZM55.2881 89.4659L55.4558 87.5308C55.4596 87.4893 55.4788 87.4507 55.5094 87.4228C55.5401 87.395 55.5799 87.3799 55.621 87.3806L56.685 87.3881C56.8018 87.3898 56.8652 87.4491 56.8752 87.5659L57.0454 89.4484C57.0755 89.7822 57.2574 89.9332 57.5912 89.9015L57.6637 89.8965C57.7613 89.887 57.851 89.8392 57.9134 89.7637C57.9758 89.6882 58.0058 89.591 57.9967 89.4934L56.6875 75.983C56.6768 75.8769 56.632 75.777 56.5598 75.6985C56.4876 75.6199 56.3918 75.5669 56.2869 75.5474C55.9114 75.479 55.702 75.6517 55.6586 76.0656C55.218 80.2862 54.7799 84.7638 54.3443 89.4985C54.3226 89.7421 54.4336 89.8723 54.6773 89.889L54.7874 89.8965C55.0945 89.9165 55.2614 89.773 55.2881 89.4659ZM55.576 86.3843L56.1092 80.7569C56.1442 80.393 56.1793 80.393 56.2143 80.7569L56.76 86.3868C56.7651 86.4285 56.7459 86.4494 56.7025 86.4494L55.6336 86.4469C55.5918 86.4469 55.5726 86.426 55.576 86.3843Z" fill="white"/>
</g>
</svg>
