<svg width="48" height="48" viewBox="0 0 48 48" fill="none" xmlns="http://www.w3.org/2000/svg">
<path d="M25.7147 18.8571V36H22.4576V18.8571H25.7147ZM25.9204 12V15.7714H22.2861V12H25.9204Z" fill="#222222"/>
<path fill-rule="evenodd" clip-rule="evenodd" d="M24 45.2571C35.74 45.2571 45.2571 35.74 45.2571 24C45.2571 12.26 35.74 2.74286 24 2.74286C12.26 2.74286 2.74286 12.26 2.74286 24C2.74286 35.74 12.26 45.2571 24 45.2571ZM24 48C37.2548 48 48 37.2548 48 24C48 10.7452 37.2548 0 24 0C10.7452 0 0 10.7452 0 24C0 37.2548 10.7452 48 24 48Z" fill="#222222"/>
</svg>
