<svg width="139" height="48" viewBox="0 0 139 48" fill="none" xmlns="http://www.w3.org/2000/svg">
<path fill-rule="evenodd" clip-rule="evenodd" d="M129.464 7.48795H127.048V20.326H129.719L136.333 10.7745V20.326H138.75V7.48795H136.079L129.464 17.0395V7.48795ZM129.643 5.1771C130.49 5.87891 131.576 6.22982 132.899 6.22982C134.222 6.22982 135.307 5.87891 136.155 5.1771C137.003 4.47528 137.478 3.53382 137.58 2.35272H135.494C135.409 3.00318 135.137 3.5167 134.68 3.89329C134.222 4.25275 133.628 4.43249 132.899 4.43249C132.169 4.43249 131.576 4.25275 131.118 3.89329C130.66 3.5167 130.389 3.00318 130.304 2.35272H128.218C128.32 3.53382 128.795 4.47528 129.643 5.1771ZM65.2134 7.26415C66.4345 7.26415 67.5453 7.56371 68.546 8.16282C69.5635 8.74481 70.3606 9.54933 70.9373 10.5764C71.5139 11.5863 71.8022 12.7075 71.8022 13.94C71.8022 15.1724 71.5139 16.3022 70.9373 17.3292C70.3606 18.3391 69.5635 19.1437 68.546 19.7428C67.5453 20.3248 66.4345 20.6158 65.2134 20.6158C64.128 20.6158 63.1189 20.3761 62.1861 19.8968C61.2703 19.4175 60.5071 18.7585 59.8966 17.9198C59.303 17.081 58.9299 16.1395 58.7772 15.0954H56.5895V20.359H54.1727V7.52092H56.5895V12.7845H58.7772C58.9299 11.7404 59.303 10.7989 59.8966 9.96015C60.5071 9.1214 61.2703 8.46238 62.1861 7.98309C63.1189 7.5038 64.128 7.26415 65.2134 7.26415ZM65.2134 18.3563C65.9766 18.3563 66.6719 18.168 67.2994 17.7914C67.9269 17.3977 68.4188 16.867 68.7749 16.1995C69.1311 15.5148 69.3091 14.7616 69.3091 13.94C69.3091 13.1183 69.1311 12.3737 68.7749 11.7061C68.4188 11.0214 67.9269 10.4908 67.2994 10.1142C66.6719 9.72051 65.9766 9.52366 65.2134 9.52366C64.4502 9.52366 63.7464 9.72051 63.1019 10.1142C62.4744 10.4908 61.9741 11.0214 61.601 11.7061C61.2449 12.3737 61.0668 13.1183 61.0668 13.94C61.0668 14.7616 61.2449 15.5148 61.601 16.1995C61.9741 16.867 62.4744 17.3977 63.1019 17.7914C63.7464 18.168 64.4502 18.3563 65.2134 18.3563ZM85.7006 15.0954H83.5637V20.359H81.147V15.0954H79.0101L75.2705 20.359H72.3449L77.153 13.7345L72.6502 7.52092H75.3213L79.0609 12.7845H81.147V7.52092H83.5637V12.7845H85.6497L89.3893 7.52092H92.0604L87.5577 13.7345L92.3657 20.359H89.4402L85.7006 15.0954ZM103.2 20.359H105.617V7.52092H103.2V12.7845H96.5857V7.52092H94.169V20.359H96.5857V15.0954H103.2V20.359ZM115.025 12.6048C116.365 12.6048 117.408 12.9728 118.154 13.7089C118.917 14.4278 119.299 15.3521 119.299 16.4819C119.299 17.6116 118.917 18.5445 118.154 19.2806C117.408 19.9995 116.365 20.359 115.025 20.359H108.742V7.52092H111.158V12.6048H115.025ZM114.694 18.2279C115.39 18.2279 115.916 18.0824 116.272 17.7914C116.628 17.5004 116.806 17.0639 116.806 16.4819C116.806 15.8999 116.628 15.4634 116.272 15.1724C115.916 14.8814 115.39 14.7359 114.694 14.7359H111.158V18.2279H114.694ZM124.005 20.359H121.589V7.52092H124.005V20.359ZM67.2997 27.3616L59.8459 44.5646H57.2257L59.2099 39.9429L53.0282 27.3616H55.9028L60.5074 36.9645L64.6285 27.3616H67.2997ZM78.8564 27.9778C77.9406 27.3958 76.923 27.1048 75.8036 27.1048C74.9218 27.1048 74.0992 27.3102 73.336 27.721C72.5728 28.1319 71.9199 28.7053 71.3772 29.4414V27.3616H69.0877V44.5646H71.5044V38.2739C72.0301 38.9586 72.6661 39.4978 73.4124 39.8916C74.1586 40.2681 74.9557 40.4564 75.8036 40.4564C76.923 40.4564 77.9406 40.174 78.8564 39.6091C79.7722 39.0271 80.493 38.2312 81.0187 37.2212C81.5445 36.2113 81.8073 35.0644 81.8073 33.7806C81.8073 32.4968 81.5445 31.3499 81.0187 30.34C80.493 29.3301 79.7722 28.5427 78.8564 27.9778ZM77.4063 37.632C76.8127 38.0086 76.1428 38.1969 75.3966 38.1969C74.6504 38.1969 73.972 38.0086 73.3615 37.632C72.7509 37.2555 72.2761 36.7334 71.9369 36.0658C71.5977 35.3811 71.4281 34.6194 71.4281 33.7806C71.4281 32.9419 71.5977 32.1887 71.9369 31.5211C72.2761 30.8364 72.7509 30.3058 73.3615 29.9292C73.972 29.5526 74.6504 29.3643 75.3966 29.3643C76.1428 29.3643 76.8127 29.5526 77.4063 29.9292C77.9999 30.3058 78.4663 30.8364 78.8055 31.5211C79.1447 32.1887 79.3143 32.9419 79.3143 33.7806C79.3143 34.6194 79.1447 35.3811 78.8055 36.0658C78.4663 36.7334 77.9999 37.2555 77.4063 37.632ZM96.2471 40.1997H93.8304V38.2739C93.3046 38.9586 92.6686 39.4978 91.9224 39.8916C91.1762 40.2681 90.3791 40.4564 89.5311 40.4564C88.4118 40.4564 87.3942 40.174 86.4784 39.6091C85.5626 39.0271 84.8418 38.2312 84.316 37.2212C83.7903 36.2113 83.5274 35.0644 83.5274 33.7806C83.5274 32.4968 83.7903 31.3499 84.316 30.34C84.8418 29.3301 85.5626 28.5427 86.4784 27.9778C87.3942 27.3958 88.4118 27.1048 89.5311 27.1048C90.413 27.1048 91.2355 27.3102 91.9987 27.721C92.7619 28.1319 93.4149 28.7053 93.9576 29.4414V27.3616H96.2471V40.1997ZM89.9381 38.1969C90.6844 38.1969 91.3627 38.0086 91.9733 37.632C92.5838 37.2555 93.0587 36.7334 93.3979 36.0658C93.7371 35.3811 93.9067 34.6194 93.9067 33.7806C93.9067 32.9419 93.7371 32.1887 93.3979 31.5211C93.0587 30.8364 92.5838 30.3058 91.9733 29.9292C91.3627 29.5526 90.6844 29.3643 89.9381 29.3643C89.1919 29.3643 88.522 29.5526 87.9284 29.9292C87.3348 30.3058 86.8685 30.8364 86.5293 31.5211C86.1901 32.1887 86.0205 32.9419 86.0205 33.7806C86.0205 34.6194 86.1901 35.3811 86.5293 36.0658C86.8685 36.7334 87.3348 37.2555 87.9284 37.632C88.522 38.0086 89.1919 38.1969 89.9381 38.1969ZM103.446 29.6724H104.682L108.127 40.1997H110.823L106.307 27.3616H101.69L97.7473 40.1997H100.368L103.446 29.6724ZM32.0631 3.05366L-0.00062561 47.9735L17.5301 36.6441L20.4685 39.1729L28.055 32.0371L40.2697 47.9735L32.0631 3.05366Z" fill="black"/>
</svg>
