<svg width="20" height="20" viewBox="0 0 20 20" fill="none" xmlns="http://www.w3.org/2000/svg">
<path d="M14.4831 13.0428C13.4155 13.7223 11.9465 13.9917 10.9763 14.0933L11.7907 14.8977L14.7636 17.8772C15.8507 18.9941 14.0818 20.7396 12.983 19.6618C12.2388 18.9043 11.1478 17.8109 10.01 16.6706L7.03702 19.6579C5.93822 20.7318 4.16924 18.9707 5.26804 17.8733C6.02395 17.1158 7.10326 16.0224 8.24102 14.8938L9.04368 14.0894C8.08516 13.9878 6.59283 13.734 5.51351 13.0389C4.24328 12.2189 3.68609 11.7385 4.17704 10.7349C4.46537 10.1648 5.25635 9.68449 6.30449 10.5124C6.30449 10.5124 7.71889 11.6409 10.0022 11.6409C12.2855 11.6409 13.6999 10.5124 13.6999 10.5124C14.7481 9.68839 15.5351 10.1648 15.8274 10.7349C16.3105 11.7385 15.7533 12.2189 14.4831 13.0428ZM4.94463 5.06483C4.94463 2.26492 7.21625 0 9.99831 0C12.7804 0 15.052 2.26492 15.052 5.06483C15.052 7.85302 12.7804 10.1179 9.99831 10.1179C7.21625 10.1179 4.94463 7.85302 4.94463 5.06483ZM7.51628 5.06483C7.51628 6.4355 8.63066 7.55234 9.99831 7.55234C11.366 7.55234 12.4803 6.4355 12.4803 5.06483C12.4803 3.68245 11.366 2.56561 9.99831 2.56561C8.63066 2.56561 7.51628 3.68245 7.51628 5.06483Z" fill="#222222"/>
</svg>
