<svg width="16" height="17" viewBox="0 0 16 17" fill="none" xmlns="http://www.w3.org/2000/svg">
<path d="M15.5437 11.3101L12.0437 9.81005C11.8941 9.74632 11.728 9.7329 11.5701 9.77179C11.4123 9.81068 11.2714 9.89978 11.1686 10.0257L9.61861 11.9195C7.18598 10.7725 5.22828 8.8148 4.08132 6.38217L5.97511 4.83215C6.10126 4.72954 6.19055 4.58863 6.22945 4.43075C6.26836 4.27286 6.25477 4.1066 6.19074 3.95713L4.69071 0.457068C4.62043 0.295943 4.49613 0.16439 4.33925 0.0850927C4.18237 0.00579539 4.00273 -0.0162755 3.83132 0.0226857L0.58126 0.772699C0.415998 0.810862 0.26855 0.903913 0.162983 1.03667C0.0574152 1.16942 -3.80697e-05 1.33404 1.8926e-08 1.50365C1.8926e-08 9.51942 6.49699 16.0039 14.5003 16.0039C14.6699 16.004 14.8346 15.9466 14.9674 15.841C15.1002 15.7354 15.1933 15.588 15.2315 15.4226L15.9815 12.1726C16.0202 12.0003 15.9977 11.82 15.9178 11.6626C15.8379 11.5051 15.7056 11.3805 15.5437 11.3101Z" fill="white"/>
</svg>
