<svg width="12" height="17" viewBox="0 0 12 17" fill="none" xmlns="http://www.w3.org/2000/svg">
<path d="M5.38338 15.6811C0.842813 9.09863 0 8.42306 0 6.00391C0 2.69019 2.68628 0.00390625 6 0.00390625C9.31372 0.00390625 12 2.69019 12 6.00391C12 8.42306 11.1572 9.09863 6.61662 15.6811C6.31866 16.1115 5.68131 16.1115 5.38338 15.6811ZM6 8.50391C7.38072 8.50391 8.5 7.38462 8.5 6.00391C8.5 4.62319 7.38072 3.50391 6 3.50391C4.61928 3.50391 3.5 4.62319 3.5 6.00391C3.5 7.38462 4.61928 8.50391 6 8.50391Z" fill="white"/>
</svg>
