<svg width="12" height="17" viewBox="0 0 12 17" fill="none" xmlns="http://www.w3.org/2000/svg">
<path d="M5.38338 15.6789C0.842813 9.09643 0 8.42087 0 6.00171C0 2.68799 2.68628 0.00170898 6 0.00170898C9.31372 0.00170898 12 2.68799 12 6.00171C12 8.42087 11.1572 9.09643 6.61662 15.6789C6.31866 16.1093 5.68131 16.1093 5.38338 15.6789ZM6 8.50171C7.38072 8.50171 8.5 7.38243 8.5 6.00171C8.5 4.62099 7.38072 3.50171 6 3.50171C4.61928 3.50171 3.5 4.62099 3.5 6.00171C3.5 7.38243 4.61928 8.50171 6 8.50171Z" fill="#B9B9B9"/>
</svg>
