<svg width="24" height="16" viewBox="0 0 24 16" fill="none" xmlns="http://www.w3.org/2000/svg">
<path d="M12 3.33333C11.5584 3.34024 11.12 3.41039 10.6983 3.54167C10.8934 3.88472 10.9973 4.27205 11 4.66667C11 4.97308 10.9396 5.2765 10.8224 5.55959C10.7051 5.84269 10.5332 6.09991 10.3166 6.31658C10.0999 6.53325 9.84268 6.70512 9.55959 6.82239C9.2765 6.93965 8.97308 7 8.66666 7C8.27204 6.99726 7.88471 6.8934 7.54166 6.69833C7.271 7.637 7.30255 8.63703 7.63182 9.55677C7.9611 10.4765 8.57141 11.2693 9.37632 11.8229C10.1812 12.3765 11.1399 12.6629 12.1166 12.6413C13.0932 12.6198 14.0384 12.2916 14.8181 11.703C15.5979 11.1145 16.1727 10.2956 16.4611 9.36224C16.7496 8.42889 16.737 7.42845 16.4253 6.50261C16.1136 5.57678 15.5184 4.7725 14.7242 4.20369C13.93 3.63488 12.9769 3.33039 12 3.33333ZM23.855 7.39167C21.5954 2.98292 17.1221 0 12 0C6.87791 0 2.40332 2.985 0.144977 7.39208C0.0496614 7.58063 0 7.78894 0 8.00021C0 8.21148 0.0496614 8.41979 0.144977 8.60833C2.40457 13.0171 6.87791 16 12 16C17.1221 16 21.5967 13.015 23.855 8.60792C23.9503 8.41937 24 8.21106 24 7.99979C24 7.78852 23.9503 7.58021 23.855 7.39167ZM12 14C7.88958 14 4.12123 11.7083 2.08623 8C4.12123 4.29167 7.88916 2 12 2C16.1108 2 19.8788 4.29167 21.9138 8C19.8792 11.7083 16.1108 14 12 14Z" fill="white"/>
</svg>
