<svg width="17" height="16" viewBox="0 0 17 16" fill="none" xmlns="http://www.w3.org/2000/svg">
<path d="M16.1293 5.35977L11.4869 4.69415L9.41196 0.556646C9.04019 -0.180854 7.96299 -0.190229 7.58804 0.556646L5.51309 4.69415L0.870668 5.35977C0.0381459 5.47852 -0.295498 6.4879 0.308239 7.06602L3.66692 10.2848L2.87253 14.8316C2.72954 15.6535 3.60973 16.2691 4.34692 15.8848L8.5 13.7379L12.6531 15.8848C13.3903 16.266 14.2705 15.6535 14.1275 14.8316L13.3331 10.2848L16.6918 7.06602C17.2955 6.4879 16.9619 5.47852 16.1293 5.35977ZM11.6966 9.75977L12.4497 14.0848L8.5 12.0441L4.55029 14.0848L5.30337 9.75977L2.10674 6.69727L6.52356 6.06602L8.5 2.12852L10.4764 6.06602L14.8933 6.69727L11.6966 9.75977Z" fill="#666666"/>
</svg>
