<svg width="48" height="49" viewBox="0 0 48 49" fill="none" xmlns="http://www.w3.org/2000/svg">
<path fill-rule="evenodd" clip-rule="evenodd" d="M24 48.0039C37.2548 48.0039 48 37.2587 48 24.0039C48 10.7491 37.2548 0.00390625 24 0.00390625C10.7452 0.00390625 0 10.7491 0 24.0039C0 37.2587 10.7452 48.0039 24 48.0039ZM30.3099 32.7966L33.9316 15.8246C34.2531 14.3287 33.3905 13.7431 32.4047 14.1104L11.1135 22.261C9.6616 22.8253 9.68303 23.6345 10.8671 24.0019L16.3104 25.6948L28.9544 17.7838C29.5491 17.3898 30.0902 17.6081 29.6455 18.002L19.4178 27.1854L19.0214 32.77C19.5893 32.77 19.8357 32.5251 20.1304 32.2323L22.7931 29.6876L28.3115 33.7283C29.3241 34.2926 30.0366 33.9944 30.3099 32.7966Z" fill="white"/>
</svg>
