<svg width="48" height="49" viewBox="0 0 48 49" fill="none" xmlns="http://www.w3.org/2000/svg">
<path fill-rule="evenodd" clip-rule="evenodd" d="M24.0001 48.0039C37.2549 48.0039 48.0001 37.2587 48.0001 24.0039C48.0001 10.7491 37.2549 0.00390625 24.0001 0.00390625C10.7452 0.00390625 6.10352e-05 10.7491 6.10352e-05 24.0039C6.10352e-05 37.2587 10.7452 48.0039 24.0001 48.0039ZM35.2425 17.2539C36.1347 17.2539 36.3202 17.7283 36.1347 18.3728C35.7638 20.1414 32.16 25.3595 32.155 25.3647C31.8442 25.8803 31.7189 26.1381 32.155 26.7156C32.1877 26.7632 32.3541 26.9381 32.6055 27.2025C33.6634 28.3148 36.2275 31.0109 36.6811 32.4648C36.9267 33.3208 36.5006 33.7539 35.6586 33.7539H32.7063C31.9179 33.7539 31.52 33.2988 30.6586 32.3134C30.2934 31.8957 29.8448 31.3826 29.2478 30.7684C27.4935 29.0308 26.7417 28.8039 26.3056 28.8039C25.5056 28.8039 25.5076 29.038 25.5265 31.2165C25.5299 31.604 25.5337 32.053 25.5337 32.5731C25.5337 33.3208 25.3032 33.7539 23.4236 33.7539C20.2959 33.7539 16.8575 31.7997 14.4165 28.1955C10.7525 22.9155 9.75006 18.9194 9.75006 18.115C9.75006 17.6612 9.92048 17.2539 10.7625 17.2539H13.7148C14.4716 17.2539 14.7573 17.5942 15.048 18.4347C16.4916 22.7659 18.9275 26.5506 19.93 26.5506C20.3059 26.5506 20.4763 26.3702 20.4763 25.3905V20.9148C20.4082 19.6395 19.9759 19.0877 19.6558 18.6792C19.4583 18.427 19.3035 18.2295 19.3035 17.95C19.3035 17.6148 19.5842 17.2539 20.0553 17.2539H24.6967C25.3182 17.2539 25.5287 17.5994 25.5287 18.3728V24.3902C25.5287 25.0347 25.8144 25.2616 25.9999 25.2616C26.3758 25.2616 26.6916 25.0347 27.3783 24.3283C29.5035 21.8842 31.0072 18.115 31.0072 18.115C31.1926 17.6612 31.5385 17.2539 32.2903 17.2539H35.2425Z" fill="white"/>
</svg>
