<svg width="24" height="20" viewBox="0 0 24 20" fill="none" xmlns="http://www.w3.org/2000/svg">
<path d="M23.453 4.01719C23.6179 3.43125 23.453 3 22.66 3H20.0358C19.3675 3 19.06 3.37031 18.8952 3.78281C18.8952 3.78281 17.5586 7.20937 15.6695 9.43125C15.0591 10.0734 14.7784 10.2797 14.4443 10.2797C14.2794 10.2797 14.0255 10.0734 14.0255 9.4875V4.01719C14.0255 3.31406 13.8384 3 13.2859 3H9.16022C8.74142 3 8.49192 3.32812 8.49192 3.63281C8.49192 4.29844 9.43646 4.45312 9.53448 6.32812V10.3969C9.53448 11.2875 9.38299 11.4516 9.04884 11.4516C8.15777 11.4516 5.99246 8.01094 4.70932 4.07344C4.45091 3.30938 4.19695 3 3.52419 3H0.899983C0.151482 3 0 3.37031 0 3.78281C0 4.51406 0.891072 8.14688 4.14794 12.9469C6.3177 16.2234 9.37408 18 12.1542 18C13.825 18 14.0299 17.6063 14.0299 16.9266C14.0299 13.7953 13.8785 13.5 14.7161 13.5C15.1037 13.5 15.772 13.7063 17.3314 15.2859C19.1135 17.1609 19.4076 18 20.4056 18H23.0298C23.7783 18 24.157 17.6062 23.9387 16.8281C23.4397 15.1922 20.067 11.8266 19.9155 11.6016C19.5279 11.0766 19.6392 10.8422 19.9155 10.3734C19.9199 10.3688 23.1233 5.625 23.453 4.01719Z" fill="#222222"/>
</svg>
